<svg width="609.424" height="87.305" viewBox="0 0 609.424 87.305" xmlns="http://www.w3.org/2000/svg"><g id="svgGroup" stroke-linecap="round" fill-rule="evenodd" font-size="9pt" stroke="#000" stroke-width="0.25mm" fill="none" style="stroke:#000;stroke-width:0.25mm;fill:none"><path d="M 139.014 76.417 A 58.183 58.183 0 0 0 139.451 75.697 A 17.575 17.575 0 0 0 139.697 76.612 A 13.583 13.583 0 0 0 141.943 81.08 A 11.164 11.164 0 0 0 142.645 81.91 A 11.918 11.918 0 0 0 145.801 84.302 Q 148.145 85.548 151.367 85.548 A 12.603 12.603 0 0 0 156.415 84.41 A 14.632 14.632 0 0 0 160.376 81.69 Q 162.988 79.223 165.336 75.178 A 52.626 52.626 0 0 0 167.667 70.636 A 5.061 5.061 0 0 0 167.835 70.391 A 7.57 7.57 0 0 0 168.164 69.825 A 41.177 41.177 0 0 0 168.55 69.033 A 34.227 34.227 0 0 0 169.116 67.774 A 61.322 61.322 0 0 0 169.171 67.645 Q 169.551 66.746 169.824 66.016 A 27.723 27.723 0 0 0 171.118 68.726 A 83.736 83.736 0 0 1 171.466 69.369 A 74.579 74.579 0 0 1 172.437 71.241 A 18.796 18.796 0 0 1 172.531 71.432 A 17.016 17.016 0 0 1 173.438 73.682 Q 173.828 74.903 173.828 76.124 Q 173.828 76.49 173.742 76.942 A 7.511 7.511 0 0 1 173.609 77.515 A 4.941 4.941 0 0 1 172.901 79.029 A 3.872 3.872 0 0 1 172.523 79.495 A 4.381 4.381 0 0 1 171.607 80.225 A 2.933 2.933 0 0 1 171.545 80.261 Q 171.09 80.523 170.521 80.633 A 4.684 4.684 0 0 1 169.629 80.714 A 3.469 3.469 0 0 1 168.482 80.518 Q 167.92 80.323 167.505 80.054 Q 167.246 79.887 167.034 79.738 A 9.475 9.475 0 0 1 166.797 79.566 Q 166.57 79.396 166.49 79.299 A 0.274 0.274 0 0 1 166.455 79.249 A 1.819 1.819 0 0 0 165.913 78.87 A 1.872 1.872 0 0 0 165.137 78.712 A 1.709 1.709 0 0 0 164.382 78.882 A 1.993 1.993 0 0 0 163.843 79.273 Q 163.281 79.835 163.281 80.567 A 1.572 1.572 0 0 0 163.334 80.97 A 1.749 1.749 0 0 0 163.574 81.495 Q 165.332 84.131 168.14 85.279 A 14.933 14.933 0 0 0 169.664 85.808 A 16.407 16.407 0 0 0 174.219 86.426 A 17.383 17.383 0 0 0 175.722 86.363 A 14.349 14.349 0 0 0 179.248 85.621 A 17.492 17.492 0 0 0 183.472 83.472 Q 185.401 82.13 186.963 80.421 A 32.9 32.9 0 0 0 187.442 79.885 A 29.252 29.252 0 0 0 189.722 76.929 A 37.406 37.406 0 0 0 190.571 75.606 A 30.874 30.874 0 0 0 191.773 73.463 Q 192.307 72.41 192.717 71.5 A 31.026 31.026 0 0 0 193.139 70.52 A 5.061 5.061 0 0 0 193.225 70.391 A 7.57 7.57 0 0 0 193.555 69.825 A 41.177 41.177 0 0 0 193.94 69.033 A 34.227 34.227 0 0 0 194.507 67.774 A 61.322 61.322 0 0 0 194.562 67.645 Q 194.941 66.746 195.215 66.016 A 27.723 27.723 0 0 0 196.509 68.726 A 83.736 83.736 0 0 1 196.857 69.369 A 74.579 74.579 0 0 1 197.827 71.241 A 18.796 18.796 0 0 1 197.921 71.432 A 17.016 17.016 0 0 1 198.828 73.682 Q 199.219 74.903 199.219 76.124 Q 199.219 76.49 199.133 76.942 A 7.511 7.511 0 0 1 198.999 77.515 A 4.941 4.941 0 0 1 198.291 79.029 A 3.872 3.872 0 0 1 197.913 79.495 A 4.381 4.381 0 0 1 196.997 80.225 A 2.933 2.933 0 0 1 196.936 80.261 Q 196.48 80.523 195.911 80.633 A 4.684 4.684 0 0 1 195.02 80.714 A 3.469 3.469 0 0 1 193.872 80.518 Q 193.311 80.323 192.896 80.054 Q 192.636 79.887 192.425 79.738 A 9.475 9.475 0 0 1 192.188 79.566 Q 191.961 79.396 191.88 79.299 A 0.274 0.274 0 0 1 191.846 79.249 A 1.819 1.819 0 0 0 191.304 78.87 A 1.872 1.872 0 0 0 190.527 78.712 A 1.709 1.709 0 0 0 189.773 78.882 A 1.993 1.993 0 0 0 189.234 79.273 Q 188.672 79.835 188.672 80.567 A 1.572 1.572 0 0 0 188.724 80.97 A 1.749 1.749 0 0 0 188.965 81.495 Q 190.723 84.131 193.53 85.279 A 14.933 14.933 0 0 0 195.055 85.808 A 16.407 16.407 0 0 0 199.61 86.426 A 17.383 17.383 0 0 0 201.113 86.363 A 14.349 14.349 0 0 0 204.639 85.621 A 17.492 17.492 0 0 0 208.862 83.472 Q 210.791 82.13 212.354 80.421 A 32.9 32.9 0 0 0 212.833 79.885 A 29.252 29.252 0 0 0 214.483 77.826 A 10.152 10.152 0 0 0 214.868 79.298 A 9.848 9.848 0 0 0 215.035 79.742 A 8.468 8.468 0 0 0 216.455 82.105 Q 217.481 83.301 218.945 83.961 Q 220.41 84.62 222.217 84.62 A 6.951 6.951 0 0 0 224.96 84.036 A 9.832 9.832 0 0 0 226.807 82.984 A 12.903 12.903 0 0 0 228.819 81.198 A 15.95 15.95 0 0 0 230.762 78.565 A 12.381 12.381 0 0 0 231.014 79.275 A 10.286 10.286 0 0 0 233.569 83.106 A 6.5 6.5 0 0 0 235.799 84.489 A 7.323 7.323 0 0 0 238.33 84.913 A 8.057 8.057 0 0 0 242.139 83.961 A 15.449 15.449 0 0 0 245.508 81.544 A 22.31 22.31 0 0 0 248.34 78.321 A 50.273 50.273 0 0 0 249.319 76.917 A 40.346 40.346 0 0 0 250.562 74.952 A 59.1 59.1 0 0 0 250.989 74.217 Q 251.33 73.621 251.618 73.081 A 31.851 31.851 0 0 0 252.124 72.095 A 920.339 920.339 0 0 1 252.334 71.668 Q 252.653 71.017 252.825 70.671 A 65.683 65.683 0 0 1 252.852 70.615 A 1.821 1.821 0 0 0 252.93 70.46 A 1.983 1.983 0 0 0 252.95 70.41 A 86.311 86.311 0 0 1 253.757 68.524 Q 254.564 66.701 255.209 65.53 A 14.065 14.065 0 0 1 255.811 64.527 A 28.325 28.325 0 0 1 255.84 64.483 Q 256.7 63.198 257.153 62.83 A 0.745 0.745 0 0 1 257.373 62.696 Q 257.604 62.889 257.714 63.628 A 7.299 7.299 0 0 1 257.764 64.063 A 24.573 24.573 0 0 1 257.797 64.488 A 27.686 27.686 0 0 1 257.861 66.407 Q 257.861 67.335 257.764 68.702 A 128.07 128.07 0 0 1 257.654 70.124 A 160.53 160.53 0 0 1 257.52 71.656 A 2315.694 2315.694 0 0 0 257.227 74.854 Q 257.08 76.465 256.934 77.857 A 446.074 446.074 0 0 0 256.847 78.689 Q 256.806 79.085 256.77 79.444 A 234.248 234.248 0 0 0 256.69 80.25 Q 256.613 81.032 256.597 81.411 A 4.221 4.221 0 0 0 256.592 81.592 Q 256.592 82.227 256.733 82.745 A 2.784 2.784 0 0 0 257.446 84.009 A 2.802 2.802 0 0 0 258.715 84.739 A 3.803 3.803 0 0 0 259.717 84.864 A 3.049 3.049 0 0 0 260.863 84.637 A 4.01 4.01 0 0 0 261.719 84.156 A 3.084 3.084 0 0 0 261.996 83.928 Q 262.834 83.157 263.672 81.397 Q 264.16 80.323 265.015 78.687 A 146.644 146.644 0 0 1 265.906 77.009 A 173.607 173.607 0 0 1 266.87 75.245 A 78.485 78.485 0 0 1 269.019 71.607 A 54.992 54.992 0 0 1 270.013 70.075 A 42.932 42.932 0 0 1 271.265 68.311 A 24.016 24.016 0 0 1 271.659 67.8 Q 272.088 67.258 272.502 66.805 A 12.724 12.724 0 0 1 273.364 65.943 A 6.58 6.58 0 0 1 273.49 65.833 Q 274.052 65.35 274.543 65.161 A 1.68 1.68 0 0 1 275.147 65.04 A 0.604 0.604 0 0 1 275.304 65.062 Q 275.633 65.15 276.026 65.601 Q 276.396 66.027 276.485 67.027 A 7.859 7.859 0 0 1 276.514 67.725 Q 276.514 68.653 276.441 69.678 A 43.66 43.66 0 0 1 276.245 71.729 A 55.079 55.079 0 0 0 276.174 72.36 A 47.176 47.176 0 0 0 276.05 73.682 A 29.429 29.429 0 0 0 276.041 73.805 Q 276.009 74.23 275.993 74.613 A 17.57 17.57 0 0 0 275.977 75.342 Q 275.977 77.051 276.245 78.736 A 10.359 10.359 0 0 0 276.3 79.049 A 9.084 9.084 0 0 0 277.295 81.812 A 6.178 6.178 0 0 0 279.443 84.058 A 4.755 4.755 0 0 0 280.101 84.4 Q 280.747 84.675 281.536 84.802 A 9.233 9.233 0 0 0 283.008 84.913 A 7.666 7.666 0 0 0 286.743 83.936 Q 288.526 82.96 290.064 81.495 A 22.481 22.481 0 0 0 292.871 78.248 A 59.404 59.404 0 0 0 293.284 77.661 A 13.274 13.274 0 0 0 293.365 78.191 A 9.079 9.079 0 0 0 293.799 79.81 A 9.576 9.576 0 0 0 294.429 81.167 A 7.093 7.093 0 0 0 295.459 82.569 A 5.88 5.88 0 0 0 297.852 84.107 Q 299.219 84.571 300.684 84.571 Q 303.467 84.571 305.86 82.325 A 11.126 11.126 0 0 0 306.121 82.071 Q 307.643 80.546 309.145 77.912 A 40.536 40.536 0 0 0 310.596 75.098 Q 311.717 78.527 313.112 80.683 A 10.849 10.849 0 0 0 314.649 82.593 Q 316.992 84.864 320.264 84.864 A 6.956 6.956 0 0 0 323.609 84.009 A 13.433 13.433 0 0 0 324.198 83.673 A 14.774 14.774 0 0 0 326.611 81.837 Q 328.027 80.518 329.199 78.858 A 58.12 58.12 0 0 0 329.772 78.033 A 50.537 50.537 0 0 0 331.323 75.611 A 39.844 39.844 0 0 0 332.202 74.073 A 30.243 30.243 0 0 0 332.935 72.632 A 87.757 87.757 0 0 0 333.226 72.011 Q 333.528 71.361 333.745 70.861 A 26.094 26.094 0 0 0 333.809 70.713 A 2.059 2.059 0 0 0 333.936 70.46 Q 333.978 70.417 334.133 70 A 18.82 18.82 0 0 0 334.18 69.874 Q 334.326 69.471 334.514 68.889 A 55.181 55.181 0 0 0 334.644 68.482 A 26.573 26.573 0 0 0 334.72 68.236 Q 334.834 67.858 334.954 67.428 A 48.681 48.681 0 0 0 335.205 66.48 Q 335.498 65.333 335.693 64.014 A 36.801 36.801 0 0 1 336.591 63.978 A 29.726 29.726 0 0 1 337.427 63.965 L 338.916 63.965 A 5.419 5.419 0 0 1 338.921 63.965 Q 339.913 63.966 340.413 64.195 A 1 1 0 0 1 340.747 64.429 A 1.401 1.401 0 0 1 340.994 64.827 Q 341.162 65.23 341.162 65.821 A 20.862 20.862 0 0 1 341.105 67.358 A 24.759 24.759 0 0 1 340.674 70.435 A 24.476 24.476 0 0 0 340.186 75.294 Q 340.186 77.589 340.869 79.42 A 10.831 10.831 0 0 0 341.394 80.609 A 8.586 8.586 0 0 0 342.7 82.496 A 7.729 7.729 0 0 0 345.41 84.4 Q 346.973 85.059 348.731 85.059 A 9.463 9.463 0 0 0 353.931 83.546 A 19.622 19.622 0 0 0 358.203 79.835 A 32.346 32.346 0 0 0 360.284 77.163 A 11.716 11.716 0 0 0 360.791 78.882 A 11.474 11.474 0 0 0 360.97 79.319 A 9.88 9.88 0 0 0 362.988 82.349 A 10.151 10.151 0 0 0 366.309 84.595 A 9.794 9.794 0 0 0 367.8 85.088 A 11.362 11.362 0 0 0 370.508 85.401 Q 372.461 85.401 374.121 84.864 A 12.788 12.788 0 0 0 374.43 84.76 A 11.328 11.328 0 0 0 377.124 83.399 A 11.573 11.573 0 0 0 379.492 81.226 A 14.324 14.324 0 0 0 381.25 78.516 Q 382.178 78.712 383.399 78.712 Q 385.693 78.76 387.549 78.174 A 14.499 14.499 0 0 0 388.232 77.94 A 12.64 12.64 0 0 0 390.894 76.588 Q 392.383 75.587 393.482 74.244 A 20.007 20.007 0 0 0 395.41 71.436 A 13.009 13.009 0 0 0 395.606 71.027 A 16.093 16.093 0 0 0 395.801 70.582 A 3.231 3.231 0 0 0 395.831 70.509 Q 395.908 70.312 395.949 70.129 A 1.83 1.83 0 0 0 395.996 69.727 A 2.324 2.324 0 0 0 395.991 69.568 A 1.698 1.698 0 0 0 395.435 68.384 A 2.278 2.278 0 0 0 395.077 68.114 A 1.6 1.6 0 0 0 394.238 67.872 A 1.831 1.831 0 0 0 393.765 67.935 A 2.244 2.244 0 0 0 393.262 68.14 Q 392.774 68.409 392.627 68.702 Q 391.846 70.313 390.991 71.534 A 9.641 9.641 0 0 1 390.493 72.186 A 7.989 7.989 0 0 1 389.063 73.536 A 7.802 7.802 0 0 1 386.67 74.708 A 9.105 9.105 0 0 1 385.266 75.001 A 12.117 12.117 0 0 1 383.692 75.098 L 383.057 75.098 A 3.558 3.558 0 0 1 382.471 75.049 Q 382.861 73.34 382.861 71.778 A 31.017 31.017 0 0 0 382.849 70.905 Q 382.781 68.478 382.324 66.651 A 16.754 16.754 0 0 0 382.145 65.991 Q 381.644 64.286 380.884 63.135 Q 379.981 61.768 378.809 61.133 A 5.152 5.152 0 0 0 376.318 60.499 Q 375.117 60.499 374.171 61.024 A 4.516 4.516 0 0 0 372.778 62.256 Q 371.939 63.355 371.625 64.854 A 9.456 9.456 0 0 0 371.436 66.798 Q 371.436 70.264 373.291 73.048 A 12.754 12.754 0 0 0 378.027 77.344 A 8.586 8.586 0 0 1 375.22 80.64 A 6.267 6.267 0 0 1 375.079 80.737 Q 374.012 81.448 372.635 81.737 A 9.885 9.885 0 0 1 370.606 81.934 Q 369.043 81.934 367.774 81.373 Q 366.504 80.811 365.576 79.81 A 6.355 6.355 0 0 1 365.083 79.208 A 7 7 0 0 1 364.16 77.418 A 8.308 8.308 0 0 1 363.913 76.572 A 9.379 9.379 0 0 1 363.672 74.415 Q 363.672 72.608 364.16 71.143 A 11.286 11.286 0 0 1 364.601 70.017 A 8.805 8.805 0 0 1 365.405 68.604 A 10.075 10.075 0 0 1 366.003 67.835 A 7.969 7.969 0 0 1 367.041 66.822 A 13.013 13.013 0 0 1 367.286 66.629 Q 367.651 66.349 367.999 66.126 A 7.547 7.547 0 0 1 368.701 65.723 A 10.167 10.167 0 0 0 368.916 65.613 Q 369.555 65.274 369.995 64.918 A 1.295 1.295 0 0 0 370.155 64.765 Q 370.508 64.362 370.508 63.673 A 2.153 2.153 0 0 0 370.465 63.233 A 1.483 1.483 0 0 0 370.093 62.501 A 1.228 1.228 0 0 0 369.802 62.274 Q 369.425 62.061 368.848 62.061 A 2.006 2.006 0 0 0 368.467 62.102 Q 368 62.193 367.337 62.487 A 12.768 12.768 0 0 0 366.651 62.818 Q 365.186 63.575 363.721 65.113 A 13.063 13.063 0 0 0 362.321 66.877 A 17.528 17.528 0 0 0 361.509 68.232 A 1.726 1.726 0 0 0 360.938 68.848 A 60.626 60.626 0 0 1 360.526 69.633 Q 360.163 70.312 359.738 71.072 A 117.405 117.405 0 0 1 358.862 72.608 A 31.79 31.79 0 0 1 356.055 76.685 A 20.788 20.788 0 0 1 355.635 77.188 A 18.338 18.338 0 0 1 352.637 79.981 A 8.08 8.08 0 0 1 352.11 80.339 A 6.39 6.39 0 0 1 348.682 81.348 A 3.581 3.581 0 0 1 348.56 81.346 Q 348.23 81.335 347.866 81.263 A 6.121 6.121 0 0 1 347.168 81.08 A 3.766 3.766 0 0 1 346.411 80.737 A 4.647 4.647 0 0 1 345.606 80.128 A 3.999 3.999 0 0 1 345.554 80.079 Q 345.173 79.71 344.859 79.212 A 6.457 6.457 0 0 1 344.385 78.297 A 5.047 5.047 0 0 1 344.181 77.718 Q 344.033 77.206 343.962 76.6 A 10.431 10.431 0 0 1 343.897 75.391 A 21.718 21.718 0 0 1 344.043 72.901 A 74.032 74.032 0 0 1 344.385 70.338 A 90.615 90.615 0 0 0 344.433 70.015 A 82.614 82.614 0 0 0 344.727 67.823 A 21.821 21.821 0 0 0 344.791 67.219 A 19.029 19.029 0 0 0 344.873 65.479 Q 344.873 62.696 343.408 61.475 Q 342.401 60.636 340.771 60.374 A 10.162 10.162 0 0 0 339.16 60.255 A 47.322 47.322 0 0 0 338.41 60.261 A 54.63 54.63 0 0 0 337.622 60.279 A 54.01 54.01 0 0 1 335.986 60.303 Q 335.986 59.327 335.816 58.008 A 15.007 15.007 0 0 0 335.81 57.967 A 13.78 13.78 0 0 0 335.254 55.494 A 6.912 6.912 0 0 0 334.948 54.715 A 5.483 5.483 0 0 0 334.155 53.467 Q 333.447 52.637 332.324 52.637 A 2.014 2.014 0 0 0 331.638 52.761 Q 331.294 52.885 330.951 53.132 A 4.458 4.458 0 0 0 330.371 53.638 A 10.445 10.445 0 0 0 329.666 54.441 A 12.451 12.451 0 0 0 328.613 56.006 Q 327.832 57.374 327.368 58.79 Q 327.049 59.763 326.95 60.46 A 4.098 4.098 0 0 0 326.904 61.036 A 4.587 4.587 0 0 0 326.921 61.43 Q 326.952 61.79 327.042 62.091 A 2.157 2.157 0 0 0 327.393 62.794 Q 327.881 63.428 328.638 63.721 A 4.921 4.921 0 0 0 329.027 63.853 A 5.487 5.487 0 0 0 330.274 64.063 A 33.536 33.536 0 0 0 330.383 64.069 A 30.655 30.655 0 0 0 331.983 64.112 Q 331.653 65.723 331.406 66.703 A 19.583 19.583 0 0 1 331.25 67.286 A 27.413 27.413 0 0 1 331.112 67.755 Q 331.046 67.972 330.985 68.153 A 9.608 9.608 0 0 1 330.888 68.432 A 1.644 1.644 0 0 0 330.883 68.438 A 2.195 2.195 0 0 0 330.518 69.044 A 46.486 46.486 0 0 1 330.176 69.806 Q 329.873 70.465 329.511 71.207 A 91.815 91.815 0 0 1 328.76 72.706 A 28.473 28.473 0 0 1 326.294 76.685 A 19.453 19.453 0 0 1 325.38 77.829 A 16.04 16.04 0 0 1 323.291 79.859 A 6.732 6.732 0 0 1 322.322 80.513 A 4.92 4.92 0 0 1 319.922 81.153 A 3.502 3.502 0 0 1 318.548 80.874 Q 315.793 79.713 313.961 73.707 A 45.721 45.721 0 0 1 312.988 69.874 Q 313.812 67.89 314.751 65.43 A 258.659 258.659 0 0 0 315.918 62.305 A 110.758 110.758 0 0 0 317.127 58.826 A 136.327 136.327 0 0 0 318.97 52.735 A 101.126 101.126 0 0 0 319.323 51.433 A 111.763 111.763 0 0 0 321.387 41.895 A 66.558 66.558 0 0 0 322.363 30.567 A 36.435 36.435 0 0 0 322.298 28.344 A 28.209 28.209 0 0 0 322.022 25.733 A 20.713 20.713 0 0 0 321.95 25.302 Q 321.609 23.38 320.972 21.973 Q 320.264 20.411 319.141 19.532 Q 318.018 18.653 316.406 18.653 A 4.745 4.745 0 0 0 313.184 19.898 Q 312.382 20.603 311.697 21.598 A 13.235 13.235 0 0 0 310.718 23.292 Q 309.668 25.44 308.936 28.272 A 48.578 48.578 0 0 0 308.588 29.708 A 55.015 55.015 0 0 0 307.764 34.254 A 81.528 81.528 0 0 0 307.129 40.699 A 117.921 117.921 0 0 0 307.044 42.33 A 103.599 103.599 0 0 0 306.934 47.022 A 121.604 121.604 0 0 0 307.105 53.626 A 89.606 89.606 0 0 0 307.617 59.571 Q 308.002 62.73 308.433 65.471 A 116.877 116.877 0 0 0 309.131 69.483 A 93.728 93.728 0 0 1 308.199 71.734 Q 307.274 73.882 306.47 75.391 A 41.335 41.335 0 0 1 306.417 75.49 Q 305.251 77.664 304.273 78.858 Q 303.616 79.659 303.011 80.113 A 3.59 3.59 0 0 1 302.393 80.494 A 5.599 5.599 0 0 1 302.341 80.518 Q 301.956 80.695 301.59 80.792 A 3.347 3.347 0 0 1 300.733 80.909 A 4.807 4.807 0 0 1 300.208 80.881 A 3.254 3.254 0 0 1 297.827 79.542 A 4.435 4.435 0 0 1 297.286 78.549 Q 297.038 77.923 296.924 77.154 A 9.688 9.688 0 0 1 296.826 75.733 Q 296.826 74.244 297.052 72.962 A 10.977 10.977 0 0 1 297.73 70.606 Q 298.633 68.458 300.025 67.066 Q 301.416 65.674 303.076 64.942 A 13.706 13.706 0 0 1 304.59 64.373 A 10.034 10.034 0 0 1 306.201 64.014 A 2.252 2.252 0 0 0 306.269 64.004 A 1.74 1.74 0 0 0 307.373 63.38 Q 307.813 62.842 307.813 62.159 Q 307.813 61.378 307.276 60.865 A 1.777 1.777 0 0 0 306.006 60.352 Q 303.76 60.352 301.489 61.475 Q 299.219 62.598 297.363 64.625 A 14.927 14.927 0 0 0 296.068 66.258 A 17.485 17.485 0 0 0 295.025 67.999 A 1.84 1.84 0 0 0 294.702 68.165 A 1.794 1.794 0 0 0 294.37 68.434 A 1.967 1.967 0 0 0 293.994 68.995 A 18.709 18.709 0 0 1 293.944 69.112 Q 293.583 69.95 292.99 71.11 A 70.342 70.342 0 0 1 292.359 72.315 A 28.781 28.781 0 0 1 292.149 72.699 A 31.435 31.435 0 0 1 289.771 76.343 A 22.122 22.122 0 0 1 289.197 77.073 A 19.257 19.257 0 0 1 286.524 79.761 A 7.27 7.27 0 0 1 285.246 80.612 A 5.055 5.055 0 0 1 282.91 81.202 A 4.312 4.312 0 0 1 282.733 81.198 Q 282.356 81.183 282.035 81.1 A 2.281 2.281 0 0 1 281.25 80.738 A 2.752 2.752 0 0 1 280.735 80.247 A 3.23 3.23 0 0 1 280.274 79.468 A 4.959 4.959 0 0 1 280.268 79.455 Q 280.09 79.033 279.972 78.537 A 8.039 8.039 0 0 1 279.81 77.589 A 18.19 18.19 0 0 1 279.756 77.045 A 20.51 20.51 0 0 1 279.688 75.342 A 25.291 25.291 0 0 1 279.698 74.629 A 30.58 30.58 0 0 1 279.761 73.365 Q 279.834 72.315 279.907 71.29 A 222.015 222.015 0 0 1 279.981 70.295 A 183.804 183.804 0 0 1 280.054 69.361 Q 280.1 68.796 280.117 68.337 A 13.825 13.825 0 0 0 280.127 67.823 A 10.163 10.163 0 0 0 279.926 65.746 A 7.198 7.198 0 0 0 278.906 63.233 A 3.895 3.895 0 0 0 276.671 61.577 A 5.477 5.477 0 0 0 275.147 61.378 Q 274.393 61.378 273.579 61.644 A 7.456 7.456 0 0 0 272.437 62.134 A 6.764 6.764 0 0 0 271.819 62.504 Q 271.23 62.898 270.646 63.452 A 13.101 13.101 0 0 0 269.58 64.6 A 49.41 49.41 0 0 0 266.87 68.311 Q 265.576 70.264 264.404 72.242 A 96.816 96.816 0 0 0 262.207 76.148 A 124.703 124.703 0 0 0 261.243 77.997 A 92.616 92.616 0 0 0 260.401 79.688 A 85.426 85.426 0 0 0 260.404 79.654 Q 260.512 78.603 260.634 77.18 A 251.754 251.754 0 0 0 260.718 76.173 A 404.549 404.549 0 0 1 261.084 71.949 A 170.62 170.62 0 0 0 261.261 69.892 A 138.904 138.904 0 0 0 261.402 67.969 A 118.802 118.802 0 0 0 261.406 67.902 Q 261.524 66.098 261.524 65.235 Q 261.524 64.063 261.304 62.94 A 9.025 9.025 0 0 0 261.179 62.391 A 7.701 7.701 0 0 0 260.62 60.889 A 4.671 4.671 0 0 0 260.515 60.691 A 3.938 3.938 0 0 0 259.375 59.4 A 2.882 2.882 0 0 0 258.388 58.946 A 3.74 3.74 0 0 0 257.471 58.839 Q 256.057 58.839 254.631 60.197 A 10.22 10.22 0 0 0 253.638 61.304 Q 252.282 63.038 250.793 66.136 A 62.985 62.985 0 0 0 249.512 68.995 A 83.015 83.015 0 0 1 249.218 69.608 Q 249.062 69.931 248.886 70.288 A 157.138 157.138 0 0 1 248.438 71.192 A 32.944 32.944 0 0 1 247.934 72.158 A 39.433 39.433 0 0 1 246.973 73.829 A 34.46 34.46 0 0 1 245.142 76.539 A 21.288 21.288 0 0 1 244.635 77.192 A 18.337 18.337 0 0 1 243.042 78.931 A 12.624 12.624 0 0 1 242.211 79.66 A 10.066 10.066 0 0 1 240.796 80.616 A 5.649 5.649 0 0 1 240.275 80.871 A 4.554 4.554 0 0 1 238.477 81.251 A 4.803 4.803 0 0 1 237.879 81.215 A 3.351 3.351 0 0 1 235.645 80.03 A 7.602 7.602 0 0 1 235.047 79.213 A 8.522 8.522 0 0 1 234.107 77.149 A 16.008 16.008 0 0 1 233.447 73.804 A 153.047 153.047 0 0 1 233.384 73.056 Q 233.289 71.902 233.252 71.192 A 1.851 1.851 0 0 0 233.087 70.545 A 2.107 2.107 0 0 0 232.691 69.971 A 2.121 2.121 0 0 0 232.593 69.875 A 1.575 1.575 0 0 0 231.494 69.434 Q 230.762 69.434 230.225 69.898 Q 229.688 70.362 229.59 71.046 A 21.42 21.42 0 0 1 229.545 71.36 Q 229.195 73.701 228.394 75.44 A 18.414 18.414 0 0 1 228.284 75.673 Q 227.473 77.373 226.489 78.516 A 10.503 10.503 0 0 1 226.427 78.588 Q 225.961 79.12 225.475 79.528 A 6.296 6.296 0 0 1 224.292 80.323 Q 223.145 80.909 222.266 80.909 A 5.935 5.935 0 0 1 222.124 80.907 Q 221.633 80.895 221.207 80.802 A 3.378 3.378 0 0 1 220.215 80.421 Q 219.385 79.932 218.897 79.151 A 5.006 5.006 0 0 1 218.863 79.096 A 5.232 5.232 0 0 1 218.213 77.418 A 9.337 9.337 0 0 1 218.018 75.538 A 18.4 18.4 0 0 1 218.019 75.352 Q 218.032 74.048 218.23 72.902 A 10.869 10.869 0 0 1 218.97 70.386 A 13.977 13.977 0 0 1 219.767 68.83 A 10.848 10.848 0 0 1 221.338 66.773 A 10.551 10.551 0 0 1 221.879 66.26 A 8.869 8.869 0 0 1 224.463 64.649 Q 226.172 63.965 227.686 63.965 A 9.53 9.53 0 0 1 227.718 63.966 Q 228.213 63.967 228.656 64.02 A 5.976 5.976 0 0 1 229.517 64.185 A 10.598 10.598 0 0 1 229.629 64.217 Q 230.364 64.426 230.908 64.698 Q 231.279 64.883 231.552 65.059 A 3.702 3.702 0 0 1 231.836 65.259 A 18.894 18.894 0 0 1 231.953 65.352 Q 232.196 65.546 232.276 65.626 A 1.819 1.819 0 0 0 232.817 66.004 A 1.872 1.872 0 0 0 233.594 66.163 Q 234.326 66.163 234.863 65.601 A 2.349 2.349 0 0 0 234.898 65.564 A 1.807 1.807 0 0 0 235.401 64.307 A 1.803 1.803 0 0 0 235.199 63.487 A 2.555 2.555 0 0 0 234.863 62.989 Q 234.821 62.946 234.442 62.623 A 123.791 123.791 0 0 0 234.326 62.525 A 3.846 3.846 0 0 0 234.315 62.516 Q 233.828 62.105 232.935 61.622 A 9.375 9.375 0 0 0 232.673 61.486 Q 231.853 61.075 230.762 60.718 A 8.016 8.016 0 0 0 229.69 60.45 A 9.649 9.649 0 0 0 227.979 60.303 A 11.083 11.083 0 0 0 225.835 60.518 A 13.892 13.892 0 0 0 223.316 61.28 Q 220.899 62.256 218.897 64.21 A 14.001 14.001 0 0 0 217.28 66.101 A 16.963 16.963 0 0 0 215.897 68.43 A 1.645 1.645 0 0 0 215.845 68.503 A 2.847 2.847 0 0 0 215.576 68.995 A 41.577 41.577 0 0 1 215.231 69.758 A 46.272 46.272 0 0 1 213.037 73.902 A 26.416 26.416 0 0 1 209.693 78.394 Q 207.813 80.421 205.469 81.69 Q 203.125 82.96 200.342 82.96 L 199.854 82.96 A 2.484 2.484 0 0 1 199.365 82.911 A 8.922 8.922 0 0 0 200.173 82.305 A 7.042 7.042 0 0 0 202.1 79.786 A 9.46 9.46 0 0 0 202.93 75.88 Q 202.93 74.317 202.368 72.755 A 28.263 28.263 0 0 0 201.727 71.137 A 37.009 37.009 0 0 0 200.928 69.41 A 162.588 162.588 0 0 0 199.988 67.536 A 218.947 218.947 0 0 0 198.926 65.479 A 30.734 30.734 0 0 1 198.924 65.475 Q 198.359 64.394 197.794 63.153 A 65.312 65.312 0 0 1 196.68 60.548 A 174.168 174.168 0 0 0 196.692 60.491 Q 196.867 59.647 196.991 59.009 A 63.231 63.231 0 0 0 197.07 58.594 A 8.462 8.462 0 0 0 197.217 57.032 A 5.19 5.19 0 0 0 197.132 56.071 A 3.776 3.776 0 0 0 196.558 54.639 Q 195.899 53.663 194.776 53.663 Q 193.555 53.663 192.871 54.664 Q 192.188 55.665 192.188 57.276 A 8.726 8.726 0 0 0 192.334 58.887 A 11.825 11.825 0 0 0 192.43 59.346 Q 192.502 59.658 192.598 60.013 A 26.193 26.193 0 0 0 192.822 60.792 A 33.364 33.364 0 0 1 192.798 60.917 A 30.624 30.624 0 0 1 191.821 64.625 Q 191.44 65.769 190.801 67.152 A 41.793 41.793 0 0 1 189.942 68.897 A 11.601 11.601 0 0 0 189.935 68.91 Q 189.794 69.194 189.731 69.359 A 1.277 1.277 0 0 0 189.697 69.459 Q 189.649 69.63 189.649 69.874 A 1.68 1.68 0 0 0 189.666 70.128 A 46.272 46.272 0 0 1 187.647 73.902 A 26.416 26.416 0 0 1 184.302 78.394 Q 182.422 80.421 180.078 81.69 Q 177.735 82.96 174.951 82.96 L 174.463 82.96 A 2.484 2.484 0 0 1 173.975 82.911 A 8.922 8.922 0 0 0 174.782 82.305 A 7.042 7.042 0 0 0 176.709 79.786 A 9.46 9.46 0 0 0 177.539 75.88 Q 177.539 74.317 176.978 72.755 A 28.263 28.263 0 0 0 176.337 71.137 A 37.009 37.009 0 0 0 175.537 69.41 A 162.588 162.588 0 0 0 174.597 67.536 A 218.947 218.947 0 0 0 173.535 65.479 A 30.734 30.734 0 0 1 173.533 65.475 Q 172.968 64.394 172.403 63.153 A 65.312 65.312 0 0 1 171.289 60.548 A 174.168 174.168 0 0 0 171.301 60.491 Q 171.476 59.647 171.6 59.009 A 63.231 63.231 0 0 0 171.68 58.594 A 8.462 8.462 0 0 0 171.826 57.032 A 5.19 5.19 0 0 0 171.741 56.071 A 3.776 3.776 0 0 0 171.167 54.639 Q 170.508 53.663 169.385 53.663 Q 168.164 53.663 167.481 54.664 Q 166.797 55.665 166.797 57.276 A 8.726 8.726 0 0 0 166.943 58.887 A 11.825 11.825 0 0 0 167.04 59.346 Q 167.111 59.658 167.207 60.013 A 26.193 26.193 0 0 0 167.432 60.792 A 33.364 33.364 0 0 1 167.407 60.917 A 30.624 30.624 0 0 1 166.431 64.625 Q 166.049 65.769 165.41 67.152 A 41.793 41.793 0 0 1 164.845 68.323 A 1.619 1.619 0 0 0 164.676 68.501 A 2.021 2.021 0 0 0 164.404 68.946 Q 163.379 71.241 162.11 73.536 A 26.568 26.568 0 0 1 161.868 73.962 A 23.85 23.85 0 0 1 159.229 77.686 A 16.247 16.247 0 0 1 158.717 78.249 A 14.061 14.061 0 0 1 155.664 80.689 A 8.253 8.253 0 0 1 154.66 81.191 A 8.592 8.592 0 0 1 151.318 81.837 A 12.41 12.41 0 0 1 150.968 81.832 Q 148.853 81.772 147.363 80.982 A 7.594 7.594 0 0 1 144.727 78.712 A 20.971 20.971 0 0 0 148.291 76.514 A 17.839 17.839 0 0 0 148.897 76.03 A 15.64 15.64 0 0 0 151.148 73.731 Q 152.344 72.217 153.027 70.46 A 9.795 9.795 0 0 0 153.197 69.988 A 10.394 10.394 0 0 0 153.711 66.7 A 8.079 8.079 0 0 0 153.636 65.576 A 6.262 6.262 0 0 0 153.174 63.917 A 7.471 7.471 0 0 0 152.997 63.543 A 6.376 6.376 0 0 0 151.758 61.841 A 6.375 6.375 0 0 0 149.78 60.523 A 6.452 6.452 0 0 0 149.677 60.481 A 5.638 5.638 0 0 0 147.559 60.059 Q 145.654 60.059 144.068 60.938 A 8.071 8.071 0 0 0 143.302 61.42 A 8.683 8.683 0 0 0 141.333 63.38 A 10.485 10.485 0 0 0 140.489 64.738 A 12.521 12.521 0 0 0 139.575 67.042 A 14.655 14.655 0 0 0 139.259 68.364 A 1.871 1.871 0 0 0 138.867 68.897 Q 138.233 70.215 137.085 72.388 Q 135.938 74.561 134.424 76.661 Q 132.91 78.76 131.104 80.298 A 7.408 7.408 0 0 1 129.844 81.174 A 5.176 5.176 0 0 1 127.344 81.837 A 4.413 4.413 0 0 1 125.097 81.227 Q 124.285 80.758 123.558 79.925 A 10.387 10.387 0 0 1 122.412 78.297 A 20.698 20.698 0 0 1 121.1 75.548 Q 119.942 72.625 119.141 68.555 A 153.76 153.76 0 0 0 124.268 58.326 A 106.787 106.787 0 0 0 128.418 47.803 A 85.296 85.296 0 0 0 131.201 37.33 A 57.914 57.914 0 0 0 131.55 35.391 A 50.876 50.876 0 0 0 132.227 27.247 A 57.237 57.237 0 0 0 132.199 25.424 Q 132.11 22.637 131.738 20.557 Q 131.441 18.891 130.998 17.606 A 11.324 11.324 0 0 0 130.371 16.114 A 8.881 8.881 0 0 0 130.256 15.896 Q 129.408 14.356 128.198 13.648 Q 126.904 12.891 125.293 12.891 A 4.654 4.654 0 0 0 123.006 13.48 A 5.907 5.907 0 0 0 121.631 14.551 A 10.594 10.594 0 0 0 121.1 15.143 Q 120.434 15.94 119.836 16.954 A 19.784 19.784 0 0 0 118.775 19.044 A 28.538 28.538 0 0 0 118.611 19.424 Q 118.042 20.769 117.548 22.314 A 46.79 46.79 0 0 0 116.626 25.635 A 75.251 75.251 0 0 0 116.194 27.543 A 86.399 86.399 0 0 0 115.137 33.594 Q 114.551 37.794 114.282 42.188 A 150.927 150.927 0 0 0 114.165 44.367 A 135.734 135.734 0 0 0 114.014 50.684 A 99.777 99.777 0 0 0 114.017 51.497 Q 114.027 52.741 114.068 54.133 A 174.499 174.499 0 0 0 114.185 57.178 A 88.673 88.673 0 0 0 114.232 58.097 A 97.72 97.72 0 0 0 114.844 64.722 Q 115.332 68.604 116.235 72.34 A 36.264 36.264 0 0 0 117.062 75.242 A 28.449 28.449 0 0 0 118.604 79.005 A 17.71 17.71 0 0 0 119.845 81.122 A 13.575 13.575 0 0 0 122.168 83.741 A 7.323 7.323 0 0 0 124.28 85.023 A 7.919 7.919 0 0 0 127.197 85.548 A 8.213 8.213 0 0 0 130.786 84.742 A 13.31 13.31 0 0 0 130.898 84.688 A 14.157 14.157 0 0 0 133.96 82.642 A 20.582 20.582 0 0 0 136.719 79.713 A 41.023 41.023 0 0 0 136.877 79.508 A 37.44 37.44 0 0 0 139.014 76.417 Z M 497.412 78.712 A 7.594 7.594 0 0 0 500.049 80.982 Q 501.538 81.772 503.653 81.832 A 12.41 12.41 0 0 0 504.004 81.837 A 8.592 8.592 0 0 0 507.346 81.191 A 8.253 8.253 0 0 0 508.35 80.689 A 14.061 14.061 0 0 0 511.402 78.249 A 16.247 16.247 0 0 0 511.914 77.686 A 23.85 23.85 0 0 0 514.554 73.962 A 26.568 26.568 0 0 0 514.795 73.536 A 60.317 60.317 0 0 0 516.97 69.212 A 2.484 2.484 0 0 1 517.041 68.995 A 62.985 62.985 0 0 1 518.322 66.136 Q 519.811 63.038 521.167 61.304 A 10.22 10.22 0 0 1 522.16 60.197 Q 523.587 58.839 525 58.839 A 3.74 3.74 0 0 1 525.917 58.946 A 2.882 2.882 0 0 1 526.904 59.4 A 3.938 3.938 0 0 1 528.044 60.691 A 4.671 4.671 0 0 1 528.15 60.889 A 7.701 7.701 0 0 1 528.708 62.391 A 9.025 9.025 0 0 1 528.833 62.94 Q 529.053 64.063 529.053 65.235 Q 529.053 66.098 528.935 67.902 A 118.802 118.802 0 0 1 528.931 67.969 A 138.904 138.904 0 0 1 528.79 69.892 A 170.62 170.62 0 0 1 528.613 71.949 A 404.549 404.549 0 0 0 528.247 76.173 A 251.754 251.754 0 0 1 528.163 77.18 Q 528.042 78.603 527.933 79.654 A 85.426 85.426 0 0 1 527.93 79.688 A 92.616 92.616 0 0 1 528.772 77.997 A 124.703 124.703 0 0 1 529.736 76.148 A 96.816 96.816 0 0 1 531.934 72.242 Q 533.106 70.264 534.4 68.311 A 49.41 49.41 0 0 1 537.11 64.6 A 13.101 13.101 0 0 1 538.175 63.452 Q 538.759 62.898 539.348 62.504 A 6.764 6.764 0 0 1 539.966 62.134 A 7.456 7.456 0 0 1 541.108 61.644 Q 541.922 61.378 542.676 61.378 A 5.477 5.477 0 0 1 544.2 61.577 A 3.895 3.895 0 0 1 546.436 63.233 A 7.198 7.198 0 0 1 547.455 65.746 A 10.163 10.163 0 0 1 547.656 67.823 A 13.825 13.825 0 0 1 547.646 68.337 Q 547.629 68.796 547.583 69.361 A 183.804 183.804 0 0 0 547.51 70.295 A 222.015 222.015 0 0 0 547.437 71.29 Q 547.363 72.315 547.29 73.365 A 30.58 30.58 0 0 0 547.227 74.629 A 25.291 25.291 0 0 0 547.217 75.342 A 20.51 20.51 0 0 0 547.286 77.045 A 18.19 18.19 0 0 0 547.339 77.589 A 8.039 8.039 0 0 0 547.502 78.537 Q 547.619 79.033 547.797 79.455 A 4.959 4.959 0 0 0 547.803 79.468 A 3.23 3.23 0 0 0 548.264 80.247 A 2.752 2.752 0 0 0 548.779 80.738 A 2.281 2.281 0 0 0 549.564 81.1 Q 549.885 81.183 550.262 81.198 A 4.312 4.312 0 0 0 550.44 81.202 A 5.055 5.055 0 0 0 552.775 80.612 A 7.27 7.27 0 0 0 554.053 79.761 A 19.257 19.257 0 0 0 556.726 77.073 A 22.122 22.122 0 0 0 557.3 76.343 A 31.435 31.435 0 0 0 559.678 72.699 A 28.781 28.781 0 0 0 559.888 72.315 A 70.342 70.342 0 0 0 560.52 71.11 Q 560.817 70.527 561.056 70.026 A 26.428 26.428 0 0 0 561.348 69.396 A 43.356 43.356 0 0 1 561.014 67.811 A 51.666 51.666 0 0 1 560.889 67.139 A 60.463 60.463 0 0 1 560.099 60.717 A 76.637 76.637 0 0 1 559.912 55.274 Q 559.912 53.663 559.961 51.49 A 114.976 114.976 0 0 1 560.074 48.387 A 135.039 135.039 0 0 1 560.156 46.9 A 92.83 92.83 0 0 1 560.525 42.558 A 102.079 102.079 0 0 1 560.596 41.92 Q 560.889 39.356 561.377 36.915 L 543.848 36.915 A 2.178 2.178 0 0 1 543.169 36.813 A 1.845 1.845 0 0 1 542.529 36.451 A 1.524 1.524 0 0 1 541.999 35.376 A 2.128 2.128 0 0 1 541.992 35.206 A 1.833 1.833 0 0 1 542.078 34.634 A 1.486 1.486 0 0 1 542.529 33.961 A 1.898 1.898 0 0 1 543.645 33.505 A 2.478 2.478 0 0 1 543.848 33.497 L 562.207 33.497 A 24.26 24.26 0 0 1 562.884 31.414 A 20.044 20.044 0 0 1 563.355 30.274 Q 564.014 28.809 564.868 27.735 A 7.405 7.405 0 0 1 565.937 26.635 A 6.18 6.18 0 0 1 566.773 26.05 A 4.531 4.531 0 0 1 569.092 25.44 A 4.116 4.116 0 0 1 570.233 25.593 A 3.441 3.441 0 0 1 571.216 26.05 A 4.826 4.826 0 0 1 572.331 27.109 A 6.066 6.066 0 0 1 572.754 27.735 A 8.347 8.347 0 0 1 573.368 29.027 A 11.161 11.161 0 0 1 573.755 30.274 A 22.04 22.04 0 0 1 574.113 32.015 A 27.942 27.942 0 0 1 574.317 33.497 L 599.268 33.497 A 2.178 2.178 0 0 1 599.946 33.599 A 1.845 1.845 0 0 1 600.586 33.961 A 1.524 1.524 0 0 1 601.117 35.036 A 2.128 2.128 0 0 1 601.123 35.206 A 1.833 1.833 0 0 1 601.038 35.778 A 1.486 1.486 0 0 1 600.586 36.451 A 1.898 1.898 0 0 1 599.471 36.907 A 2.478 2.478 0 0 1 599.268 36.915 L 574.512 36.915 L 574.512 37.452 A 45.681 45.681 0 0 1 574.34 41.328 A 55.671 55.671 0 0 1 574.072 43.799 Q 573.633 47.169 572.876 50.513 Q 572.119 53.858 571.167 57.032 A 105.746 105.746 0 0 1 570.203 60.084 A 85.07 85.07 0 0 1 569.214 62.891 A 62.505 62.505 0 0 1 568.343 65.106 Q 567.786 66.442 567.236 67.554 A 29.363 29.363 0 0 1 566.66 68.666 Q 566.112 69.666 565.633 70.308 A 7.344 7.344 0 0 1 565.479 70.508 A 30.44 30.44 0 0 0 566.517 73.573 A 26.381 26.381 0 0 0 566.992 74.683 A 19.431 19.431 0 0 0 568.05 76.698 A 15.346 15.346 0 0 0 568.97 78.052 Q 570.068 79.493 571.338 80.323 Q 572.608 81.153 574.072 81.153 Q 575.781 81.153 577.466 79.713 A 19.09 19.09 0 0 0 579.855 77.25 A 22.314 22.314 0 0 0 580.591 76.295 A 35.931 35.931 0 0 0 582.991 72.544 A 32.982 32.982 0 0 0 583.13 72.291 A 58.892 58.892 0 0 0 583.641 71.328 Q 584.184 70.28 584.526 69.498 A 15.612 15.612 0 0 0 584.717 69.044 A 2.195 2.195 0 0 1 585.082 68.438 A 1.644 1.644 0 0 1 585.12 68.397 A 112.1 112.1 0 0 1 585.84 60.352 Q 585.938 59.669 586.45 59.156 A 1.725 1.725 0 0 1 587.463 58.665 A 2.399 2.399 0 0 1 587.793 58.643 A 1.54 1.54 0 0 1 588.944 59.129 A 1.932 1.932 0 0 1 589.014 59.205 A 1.914 1.914 0 0 1 589.502 60.499 A 3.592 3.592 0 0 1 589.498 60.65 Q 589.479 61.066 589.38 62.256 Q 589.296 63.264 589.189 64.536 A 4937.162 4937.162 0 0 1 589.087 65.748 Q 588.916 67.774 588.794 70.045 A 89.207 89.207 0 0 0 588.703 72.224 A 68.393 68.393 0 0 0 588.672 74.219 A 21.689 21.689 0 0 0 588.722 75.739 Q 588.777 76.521 588.893 77.185 A 8.927 8.927 0 0 0 589.185 78.394 A 9.227 9.227 0 0 0 589.601 79.464 Q 589.993 80.304 590.503 80.86 A 5.069 5.069 0 0 0 591.174 81.477 Q 591.613 81.81 592.079 81.985 A 3.105 3.105 0 0 0 592.212 82.032 A 6.132 6.132 0 0 0 593.232 82.273 A 5.017 5.017 0 0 0 593.945 82.325 A 4.304 4.304 0 0 0 595.448 82.041 Q 596 81.836 596.567 81.484 A 7.868 7.868 0 0 0 596.777 81.348 A 12.258 12.258 0 0 0 598.073 80.344 Q 598.915 79.603 599.78 78.614 Q 601.27 76.912 602.782 74.546 A 47.112 47.112 0 0 0 602.881 74.39 A 57.077 57.077 0 0 0 604.719 71.264 A 71.218 71.218 0 0 0 605.957 68.897 Q 606.201 68.409 606.641 68.14 A 1.836 1.836 0 0 1 607.617 67.872 A 1.698 1.698 0 0 1 608.372 68.037 A 1.715 1.715 0 0 1 608.911 68.458 A 2.213 2.213 0 0 1 609.257 68.979 A 1.752 1.752 0 0 1 609.424 69.727 Q 609.424 70.207 609.236 70.545 A 1.283 1.283 0 0 1 609.229 70.557 A 120.518 120.518 0 0 1 608.748 71.468 Q 608.313 72.285 607.764 73.292 Q 606.885 74.903 605.762 76.612 A 45.815 45.815 0 0 1 603.296 80.006 A 24.386 24.386 0 0 1 600.722 82.778 A 22.341 22.341 0 0 1 600.44 83.033 A 15.182 15.182 0 0 1 598.112 84.744 A 13.449 13.449 0 0 1 597.266 85.206 A 7.812 7.812 0 0 1 595.066 85.938 A 7.019 7.019 0 0 1 593.897 86.036 A 8.808 8.808 0 0 1 591.841 85.806 A 7.029 7.029 0 0 1 590.039 85.108 Q 588.379 84.18 587.232 82.618 A 10.239 10.239 0 0 1 585.908 80.143 A 12.594 12.594 0 0 1 585.523 78.931 A 17.067 17.067 0 0 1 585.057 76.344 A 45.574 45.574 0 0 1 584.786 76.779 A 57.03 57.03 0 0 1 583.862 78.199 Q 582.666 79.981 581.177 81.446 A 15.709 15.709 0 0 1 578.297 83.7 A 14.596 14.596 0 0 1 577.979 83.887 A 7.173 7.173 0 0 1 574.365 84.864 A 9.311 9.311 0 0 1 568.311 82.667 Q 565.744 80.567 563.913 76.861 A 25.393 25.393 0 0 1 563.745 76.514 A 31.335 31.335 0 0 1 562.869 74.463 A 49.484 49.484 0 0 1 562.622 74.879 A 46.249 46.249 0 0 1 561.451 76.726 A 59.404 59.404 0 0 1 560.401 78.248 A 22.481 22.481 0 0 1 557.593 81.495 Q 556.055 82.96 554.273 83.936 A 7.666 7.666 0 0 1 550.537 84.913 A 9.233 9.233 0 0 1 549.065 84.802 Q 548.276 84.675 547.631 84.4 A 4.755 4.755 0 0 1 546.973 84.058 A 6.178 6.178 0 0 1 544.824 81.812 A 9.084 9.084 0 0 1 543.829 79.049 A 10.359 10.359 0 0 1 543.775 78.736 Q 543.506 77.051 543.506 75.342 A 17.57 17.57 0 0 1 543.522 74.613 Q 543.538 74.23 543.57 73.805 A 29.429 29.429 0 0 1 543.579 73.682 A 47.176 47.176 0 0 1 543.703 72.36 A 55.079 55.079 0 0 1 543.775 71.729 A 43.66 43.66 0 0 0 543.97 69.678 Q 544.043 68.653 544.043 67.725 A 7.859 7.859 0 0 0 544.014 67.027 Q 543.925 66.027 543.555 65.601 Q 543.163 65.15 542.834 65.062 A 0.604 0.604 0 0 0 542.676 65.04 A 1.68 1.68 0 0 0 542.073 65.161 Q 541.581 65.35 541.019 65.833 A 6.58 6.58 0 0 0 540.894 65.943 A 12.724 12.724 0 0 0 540.032 66.805 Q 539.618 67.258 539.188 67.8 A 24.016 24.016 0 0 0 538.794 68.311 A 42.932 42.932 0 0 0 537.543 70.075 A 54.992 54.992 0 0 0 536.548 71.607 A 78.485 78.485 0 0 0 534.4 75.245 A 173.607 173.607 0 0 0 533.435 77.009 A 146.644 146.644 0 0 0 532.544 78.687 Q 531.69 80.323 531.201 81.397 Q 530.363 83.157 529.525 83.928 A 3.084 3.084 0 0 1 529.248 84.156 A 4.01 4.01 0 0 1 528.392 84.637 A 3.049 3.049 0 0 1 527.246 84.864 A 3.803 3.803 0 0 1 526.244 84.739 A 2.802 2.802 0 0 1 524.976 84.009 A 2.784 2.784 0 0 1 524.262 82.745 Q 524.121 82.227 524.121 81.592 A 4.221 4.221 0 0 1 524.126 81.411 Q 524.143 81.032 524.219 80.25 A 234.248 234.248 0 0 1 524.299 79.444 Q 524.335 79.085 524.376 78.689 A 446.074 446.074 0 0 1 524.463 77.857 Q 524.61 76.465 524.756 74.854 A 2315.694 2315.694 0 0 1 525.049 71.656 A 160.53 160.53 0 0 0 525.183 70.124 A 128.07 128.07 0 0 0 525.293 68.702 Q 525.391 67.335 525.391 66.407 A 27.686 27.686 0 0 0 525.326 64.488 A 24.573 24.573 0 0 0 525.293 64.063 A 7.299 7.299 0 0 0 525.243 63.628 Q 525.134 62.889 524.902 62.696 A 0.745 0.745 0 0 0 524.682 62.83 Q 524.229 63.198 523.369 64.483 A 28.325 28.325 0 0 0 523.34 64.527 A 14.065 14.065 0 0 0 522.739 65.53 Q 521.777 67.274 520.459 70.46 A 1.821 1.821 0 0 1 520.306 70.739 A 52.626 52.626 0 0 1 518.022 75.178 Q 515.673 79.223 513.062 81.69 A 14.632 14.632 0 0 1 509.1 84.41 A 12.603 12.603 0 0 1 504.053 85.548 Q 500.83 85.548 498.486 84.302 A 11.918 11.918 0 0 1 495.331 81.91 A 11.164 11.164 0 0 1 494.629 81.08 A 13.583 13.583 0 0 1 492.383 76.612 A 17.575 17.575 0 0 1 491.651 71.631 Q 491.651 69.141 492.261 67.042 A 12.521 12.521 0 0 1 493.175 64.738 A 10.485 10.485 0 0 1 494.019 63.38 A 8.683 8.683 0 0 1 495.987 61.42 A 8.071 8.071 0 0 1 496.753 60.938 Q 498.34 60.059 500.244 60.059 A 5.638 5.638 0 0 1 502.363 60.481 A 6.452 6.452 0 0 1 502.466 60.523 A 6.375 6.375 0 0 1 504.443 61.841 A 6.376 6.376 0 0 1 505.683 63.543 A 7.471 7.471 0 0 1 505.86 63.917 A 6.262 6.262 0 0 1 506.321 65.576 A 8.079 8.079 0 0 1 506.397 66.7 A 10.394 10.394 0 0 1 505.883 69.988 A 9.795 9.795 0 0 1 505.713 70.46 Q 505.029 72.217 503.833 73.731 A 15.64 15.64 0 0 1 501.583 76.03 A 17.839 17.839 0 0 1 500.977 76.514 A 20.971 20.971 0 0 1 497.412 78.712 Z M 480.078 3.712 L 479.151 3.712 A 2.328 2.328 0 0 1 478.455 3.612 A 1.92 1.92 0 0 1 477.759 3.223 A 1.604 1.604 0 0 1 477.209 2.132 A 2.256 2.256 0 0 1 477.197 1.905 Q 477.197 1.157 477.546 0.737 A 1.321 1.321 0 0 1 478.052 0.367 Q 478.906 0.001 479.981 0.001 Q 483.545 0.001 486.524 1.661 A 15.15 15.15 0 0 1 491.268 5.842 A 17.651 17.651 0 0 1 491.602 6.299 Q 493.701 9.278 494.873 13.331 A 29.851 29.851 0 0 1 495.931 19.226 A 35.848 35.848 0 0 1 496.045 22.12 A 48.811 48.811 0 0 1 494.548 33.926 A 57.897 57.897 0 0 1 493.384 37.965 A 68.769 68.769 0 0 1 488.798 48.677 A 83.953 83.953 0 0 1 485.523 54.322 A 100.316 100.316 0 0 1 478.05 64.578 A 124.253 124.253 0 0 1 472.632 70.704 A 144.53 144.53 0 0 1 461.539 81.238 A 173.885 173.885 0 0 1 454.932 86.622 Q 454.688 86.817 454.297 87.061 A 1.591 1.591 0 0 1 453.691 87.281 A 2.093 2.093 0 0 1 453.369 87.305 A 2.226 2.226 0 0 1 452.837 87.246 A 1.406 1.406 0 0 1 452.002 86.695 A 2.333 2.333 0 0 1 451.573 85.509 A 2.954 2.954 0 0 1 451.563 85.255 A 5.949 5.949 0 0 1 451.566 85.07 Q 451.576 84.77 451.612 84.207 A 82.069 82.069 0 0 1 451.636 83.839 A 333.955 333.955 0 0 0 451.694 82.964 Q 451.72 82.571 451.748 82.131 A 692.322 692.322 0 0 0 451.807 81.202 A 196.597 196.597 0 0 1 451.917 79.56 A 259.752 259.752 0 0 1 452.051 77.759 Q 452.197 75.88 452.295 73.951 Q 452.393 72.022 452.466 70.215 A 98.432 98.432 0 0 0 452.516 68.709 Q 452.533 68.019 452.538 67.399 A 57.996 57.996 0 0 0 452.539 66.993 A 133.518 133.518 0 0 0 452.541 66.383 Q 452.541 60.565 452.03 55.236 A 94.092 94.092 0 0 0 450.928 47.242 A 61.485 61.485 0 0 0 448.861 39.034 A 45.525 45.525 0 0 0 445.654 31.544 A 30.589 30.589 0 0 0 440.933 24.992 A 26.21 26.21 0 0 0 436.353 21.168 Q 430.664 17.432 422.608 17.432 A 37.452 37.452 0 0 0 417.377 17.78 Q 414.497 18.186 412.036 19.068 A 27.01 27.01 0 0 0 407.843 20.966 A 20.76 20.76 0 0 0 404.395 23.389 Q 401.318 26.075 399.756 29.468 A 16.634 16.634 0 0 0 398.249 35.057 A 15.714 15.714 0 0 0 398.193 36.378 A 15.957 15.957 0 0 0 398.473 39.425 A 12.619 12.619 0 0 0 399.243 41.968 A 12.581 12.581 0 0 0 401.465 45.492 A 11.843 11.843 0 0 0 402.124 46.168 Q 403.955 47.901 406.445 48.804 A 15.293 15.293 0 0 0 410.882 49.683 A 17.79 17.79 0 0 0 411.817 49.708 A 19.279 19.279 0 0 0 414.287 49.556 A 15.059 15.059 0 0 0 416.26 49.171 A 26.956 26.956 0 0 0 417.845 48.696 Q 418.859 48.355 419.678 47.974 A 24.003 24.003 0 0 0 420.503 47.572 Q 421.339 47.143 421.891 46.76 A 7.012 7.012 0 0 0 421.9 46.754 Q 422.615 46.255 422.772 46.122 A 0.519 0.519 0 0 0 422.803 46.094 A 1.183 1.183 0 0 1 423.173 45.839 A 1.121 1.121 0 0 1 423.364 45.777 A 2.857 2.857 0 0 1 423.785 45.711 A 2.445 2.445 0 0 1 423.975 45.704 Q 424.707 45.704 425.244 46.168 A 1.524 1.524 0 0 1 425.775 47.243 A 2.128 2.128 0 0 1 425.781 47.413 A 2.161 2.161 0 0 1 425.706 47.999 A 1.549 1.549 0 0 1 425.147 48.829 A 0.929 0.929 0 0 1 425.083 48.884 Q 424.912 49.022 424.346 49.436 A 108.646 108.646 0 0 1 424.072 49.634 A 10.495 10.495 0 0 1 423.312 50.133 Q 422.906 50.376 422.418 50.63 A 26.127 26.127 0 0 1 421.362 51.148 Q 419.873 51.84 417.86 52.443 A 39.471 39.471 0 0 1 417.188 52.637 A 18.199 18.199 0 0 1 414.099 53.208 A 23.295 23.295 0 0 1 411.768 53.321 A 19.414 19.414 0 0 1 406.549 52.634 A 17.698 17.698 0 0 1 404.932 52.1 A 16.002 16.002 0 0 1 400.06 49.187 A 15.242 15.242 0 0 1 399.463 48.633 Q 397.168 46.387 395.85 43.287 A 16.632 16.632 0 0 1 394.614 38.265 A 20.134 20.134 0 0 1 394.531 36.426 A 20.019 20.019 0 0 1 396.227 28.428 A 22.886 22.886 0 0 1 396.338 28.174 A 21.078 21.078 0 0 1 401.036 21.551 A 24.454 24.454 0 0 1 401.685 20.948 A 24.734 24.734 0 0 1 406.758 17.467 A 31.594 31.594 0 0 1 410.425 15.845 A 29.811 29.811 0 0 1 416.412 14.34 Q 419.246 13.918 422.436 13.917 A 48.928 48.928 0 0 1 422.461 13.917 A 34.138 34.138 0 0 1 429.964 14.704 A 25.84 25.84 0 0 1 437.671 17.75 A 29.613 29.613 0 0 1 446.825 26.46 A 35.617 35.617 0 0 1 448.169 28.565 A 46.231 46.231 0 0 1 451.946 36.789 Q 453.34 40.758 454.265 45.35 A 75.423 75.423 0 0 1 454.273 45.386 A 98.581 98.581 0 0 1 455.858 56.97 A 129.27 129.27 0 0 1 456.25 67.237 A 168.696 168.696 0 0 1 456.138 73.301 A 185.592 185.592 0 0 1 456.104 74.195 A 192.537 192.537 0 0 1 455.664 81.495 A 125.368 125.368 0 0 0 469.243 69.238 A 114.432 114.432 0 0 0 470.972 67.383 A 111.21 111.21 0 0 0 479.029 57.505 A 93.574 93.574 0 0 0 482.544 52.271 A 77.174 77.174 0 0 0 487.627 42.738 A 64.838 64.838 0 0 0 489.844 37.037 A 50.793 50.793 0 0 0 491.862 28.944 A 40.463 40.463 0 0 0 492.383 22.559 A 33.27 33.27 0 0 0 492.049 17.764 A 28.078 28.078 0 0 0 491.528 15.089 A 22.75 22.75 0 0 0 490.485 11.86 A 17.333 17.333 0 0 0 489.063 9.107 A 13.619 13.619 0 0 0 486.917 6.5 A 11.706 11.706 0 0 0 485.181 5.152 Q 482.91 3.712 480.078 3.712 Z M 100.549 84.269 A 1.432 1.432 0 0 0 100.391 83.839 A 12.72 12.72 0 0 1 99.996 82.995 Q 99.405 81.606 98.926 79.688 A 50.328 50.328 0 0 1 98.334 76.99 A 68.271 68.271 0 0 1 97.827 73.975 A 105.018 105.018 0 0 1 97.4 70.673 A 130.103 130.103 0 0 1 97.046 67.115 A 142.938 142.938 0 0 1 96.898 65.252 A 161.156 161.156 0 0 1 96.582 59.424 A 750.251 750.251 0 0 1 98.428 59.192 Q 100.376 58.95 101.953 58.765 A 2034.707 2034.707 0 0 1 103.33 58.605 Q 103.99 58.528 104.593 58.458 A 1143.01 1143.01 0 0 1 105.957 58.301 A 407.771 407.771 0 0 0 106.973 58.184 Q 107.454 58.128 107.884 58.076 A 196.106 196.106 0 0 0 108.838 57.96 A 204.133 204.133 0 0 1 109.542 57.873 Q 109.879 57.832 110.188 57.796 A 115.997 115.997 0 0 1 110.889 57.715 Q 111.621 57.618 112.085 57.105 A 1.727 1.727 0 0 0 112.549 55.909 A 2.152 2.152 0 0 0 112.544 55.769 A 1.649 1.649 0 0 0 111.939 54.566 Q 111.328 54.053 110.693 54.053 A 1.104 1.104 0 0 0 110.628 54.057 Q 110.241 54.084 107.922 54.334 A 906.361 906.361 0 0 0 107.129 54.42 Q 103.76 54.786 96.436 55.714 Q 96.338 53.712 96.338 51.758 L 96.338 47.803 Q 96.338 42.432 96.558 37.183 A 361.622 361.622 0 0 1 96.802 32.154 A 275.553 275.553 0 0 1 97.095 27.564 A 340.667 340.667 0 0 1 97.293 24.964 Q 97.392 23.729 97.492 22.626 A 167.558 167.558 0 0 1 97.73 20.167 Q 97.978 17.802 98.121 16.718 A 21.241 21.241 0 0 1 98.193 16.212 A 9.037 9.037 0 0 0 98.367 15.992 Q 98.56 15.741 98.762 15.445 A 16.678 16.678 0 0 0 99.121 14.893 A 4.343 4.343 0 0 0 99.246 14.681 Q 99.405 14.39 99.495 14.114 A 2.221 2.221 0 0 0 99.61 13.428 A 2.44 2.44 0 0 0 99.607 13.314 A 1.962 1.962 0 0 0 98.926 11.89 Q 98.667 11.659 98.401 11.515 A 1.855 1.855 0 0 0 97.51 11.28 A 2.84 2.84 0 0 0 97.171 11.3 Q 96.113 11.427 95.606 12.379 A 8.733 8.733 0 0 0 95.331 12.942 A 9.772 9.772 0 0 0 94.727 14.796 A 448.319 448.319 0 0 1 94.628 14.958 Q 93.675 16.53 92.236 18.873 A 380.829 380.829 0 0 1 90.625 21.473 A 518.499 518.499 0 0 1 88.818 24.341 A 1584.775 1584.775 0 0 1 86.847 27.442 A 1911.364 1911.364 0 0 1 84.741 30.738 Q 82.568 34.131 80.298 37.598 A 453.273 453.273 0 0 1 75.733 44.434 A 524.132 524.132 0 0 1 73.486 47.706 A 443.034 443.034 0 0 1 71.338 50.782 Q 70.068 52.589 68.262 54.883 A 81.593 81.593 0 0 1 66.321 57.252 A 106.617 106.617 0 0 1 64.111 59.766 A 235.929 235.929 0 0 1 61.107 60.048 A 200.648 200.648 0 0 1 54.834 60.499 Q 50.44 60.743 46.485 60.743 Q 39.6 60.743 34.229 60.01 Q 31.123 59.587 28.581 58.927 A 30.324 30.324 0 0 1 25.171 57.838 A 22.36 22.36 0 0 1 23.922 57.307 Q 21.143 56.021 19.556 54.273 Q 17.627 52.149 17.627 49.366 Q 17.627 47.755 18.311 46.363 A 14.034 14.034 0 0 1 18.937 45.22 A 10.75 10.75 0 0 1 19.824 43.97 A 16.135 16.135 0 0 1 20.189 43.545 Q 20.489 43.208 20.776 42.928 A 8.284 8.284 0 0 1 21.387 42.383 A 94.693 94.693 0 0 0 21.591 42.22 Q 22.134 41.783 22.217 41.7 A 1.531 1.531 0 0 0 22.803 41.041 A 1.986 1.986 0 0 0 22.998 40.186 A 2.223 2.223 0 0 0 22.993 40.034 A 1.595 1.595 0 0 0 22.412 38.868 A 2.462 2.462 0 0 0 22.208 38.714 A 1.878 1.878 0 0 0 21.143 38.38 Q 20.264 38.38 19.043 39.381 A 9.682 9.682 0 0 0 19.023 39.397 Q 18.385 39.923 17.774 40.609 A 15.523 15.523 0 0 0 16.699 41.968 Q 15.576 43.555 14.771 45.508 A 11.654 11.654 0 0 0 14.571 46.027 A 10 10 0 0 0 13.965 49.415 A 13.118 13.118 0 0 0 14.002 50.402 A 9.949 9.949 0 0 0 16.626 56.592 A 16.359 16.359 0 0 0 20.199 59.47 A 22.609 22.609 0 0 0 23.779 61.207 A 32.267 32.267 0 0 0 23.929 61.264 Q 28.37 62.952 34.18 63.673 A 91.232 91.232 0 0 0 37.268 64.001 A 105.035 105.035 0 0 0 46.631 64.405 A 157.38 157.38 0 0 0 53.369 64.258 A 166.335 166.335 0 0 0 60.254 63.819 A 81.161 81.161 0 0 1 57.978 66.007 A 94.666 94.666 0 0 1 52.417 70.753 A 61.639 61.639 0 0 1 43.091 76.832 A 56.942 56.942 0 0 1 32.471 81.153 A 41.29 41.29 0 0 1 20.703 82.813 A 45.897 45.897 0 0 1 19.464 82.797 Q 17.641 82.747 16.036 82.55 A 24.97 24.97 0 0 1 12.94 81.983 Q 10.895 81.464 9.298 80.869 A 20.567 20.567 0 0 1 7.544 80.128 Q 6.084 79.423 5.12 78.775 A 8.996 8.996 0 0 1 4.346 78.199 Q 3.272 77.296 3.174 77.198 A 1.761 1.761 0 0 0 2.521 76.741 A 1.92 1.92 0 0 0 1.807 76.612 A 1.74 1.74 0 0 0 1.143 76.738 A 1.836 1.836 0 0 0 0.537 77.149 A 1.819 1.819 0 0 0 0.158 77.691 A 1.872 1.872 0 0 0 0 78.467 A 2.26 2.26 0 0 0 0.017 78.75 A 1.644 1.644 0 0 0 0.488 79.737 Q 0.574 79.822 1.538 80.656 A 445.92 445.92 0 0 0 1.831 80.909 Q 3.076 81.983 5.542 83.228 A 21.489 21.489 0 0 0 6.77 83.798 Q 7.854 84.262 9.139 84.689 A 44.709 44.709 0 0 0 11.792 85.474 Q 13.98 86.053 16.633 86.297 A 45.037 45.037 0 0 0 20.752 86.475 A 46.701 46.701 0 0 0 30.907 85.349 A 54.852 54.852 0 0 0 43.921 80.591 A 69.093 69.093 0 0 0 55.194 73.334 A 90.342 90.342 0 0 0 65.918 63.331 Q 70.166 62.891 74.268 62.305 A 2951.663 2951.663 0 0 1 75.89 62.089 Q 78.285 61.771 80.45 61.488 A 1749.08 1749.08 0 0 1 84.693 60.938 Q 87.011 60.641 89.096 60.368 A 1440.416 1440.416 0 0 0 92.92 59.864 A 247.322 247.322 0 0 0 92.971 60.885 A 224.386 224.386 0 0 0 93.433 67.798 Q 93.75 71.631 94.263 74.952 A 69.24 69.24 0 0 0 94.824 78.12 A 52.708 52.708 0 0 0 95.484 80.982 Q 95.904 82.591 96.402 83.882 A 16.706 16.706 0 0 0 97.119 85.499 A 2.074 2.074 0 0 0 97.252 85.728 A 1.622 1.622 0 0 0 97.778 86.231 Q 98.193 86.475 98.731 86.475 Q 99.561 86.475 100.073 85.938 A 1.777 1.777 0 0 0 100.586 84.669 A 2.434 2.434 0 0 0 100.586 84.655 Q 100.585 84.449 100.549 84.269 Z M 79.279 57.905 A 2075.692 2075.692 0 0 0 73.779 58.643 A 267.565 267.565 0 0 0 73.5 58.68 A 242.506 242.506 0 0 0 71.607 58.936 A 44.561 44.561 0 0 1 69.483 59.18 Q 70.703 57.667 71.924 56.104 A 82.694 82.694 0 0 0 74.317 52.881 A 443.548 443.548 0 0 0 76.721 49.439 A 534.828 534.828 0 0 0 79.248 45.753 A 525.689 525.689 0 0 0 84.375 38.062 A 638.013 638.013 0 0 0 89.282 30.445 Q 91.651 26.71 93.604 23.633 Q 93.329 26.533 93.131 30.071 A 262.311 262.311 0 0 0 92.92 34.547 A 305.275 305.275 0 0 0 92.813 37.722 A 350.862 350.862 0 0 0 92.676 47.706 A 365.39 365.39 0 0 0 92.7 51.954 Q 92.725 54.053 92.774 56.153 A 5641.155 5641.155 0 0 0 88.739 56.672 A 7759.187 7759.187 0 0 0 84.253 57.252 A 1534.241 1534.241 0 0 0 79.279 57.905 Z M 117.725 50.928 A 121.998 121.998 0 0 0 117.807 55.479 A 108.129 108.129 0 0 0 117.871 56.934 Q 118.018 59.815 118.262 62.452 A 106.366 106.366 0 0 0 121.228 56.231 A 120.375 120.375 0 0 0 122.168 54.029 A 103.429 103.429 0 0 0 125.44 44.996 Q 126.856 40.43 127.71 35.914 A 49.23 49.23 0 0 0 128.464 30.164 A 41.551 41.551 0 0 0 128.565 27.296 Q 128.565 22.863 128.016 20.367 A 9.91 9.91 0 0 0 127.637 19.044 A 7.386 7.386 0 0 0 127.201 18.073 Q 126.584 16.949 125.756 16.657 A 1.815 1.815 0 0 0 125.147 16.553 Q 124.157 16.553 123.236 17.872 A 6.608 6.608 0 0 0 123.169 17.969 A 11.087 11.087 0 0 0 122.486 19.148 Q 122.163 19.786 121.856 20.554 A 25.597 25.597 0 0 0 121.387 21.827 A 38.309 38.309 0 0 0 120.689 24.131 Q 120.258 25.721 119.873 27.589 A 82.5 82.5 0 0 0 119.105 31.93 A 99.273 99.273 0 0 0 118.726 34.717 A 137.207 137.207 0 0 0 118.14 40.623 A 154.776 154.776 0 0 0 117.993 42.676 A 127.769 127.769 0 0 0 117.725 50.928 Z M 318.701 30.518 A 45.77 45.77 0 0 0 318.683 29.249 A 57.289 57.289 0 0 0 318.628 27.881 A 17.583 17.583 0 0 0 318.435 26.015 A 14.989 14.989 0 0 0 318.286 25.22 Q 318.073 24.231 317.751 23.503 A 5.617 5.617 0 0 0 317.578 23.145 Q 317.29 22.6 316.875 22.413 A 1.126 1.126 0 0 0 316.406 22.315 A 1.565 1.565 0 0 0 315.47 22.65 Q 314.927 23.048 314.422 23.923 A 8.885 8.885 0 0 0 314.136 24.464 A 17.655 17.655 0 0 0 313.39 26.253 Q 313.055 27.188 312.754 28.289 A 39.785 39.785 0 0 0 312.305 30.103 A 59.313 59.313 0 0 0 311.603 33.826 Q 311.297 35.773 311.067 37.944 A 96.236 96.236 0 0 0 311.06 38.013 Q 310.596 42.432 310.596 46.924 A 108.335 108.335 0 0 0 310.938 55.518 A 186.394 186.394 0 0 0 311.28 59.343 Q 311.485 61.394 311.719 63.184 A 159.473 159.473 0 0 0 314.404 55.445 A 101.165 101.165 0 0 0 316.626 47.315 Q 317.578 43.165 318.14 38.941 Q 318.701 34.717 318.701 30.518 Z M 570.85 36.915 L 565.088 36.915 Q 564.404 39.942 563.989 44.41 Q 563.704 47.481 563.615 51.465 A 170.518 170.518 0 0 0 563.574 55.274 A 114.982 114.982 0 0 0 563.587 56.985 Q 563.623 59.438 563.769 61.248 A 42.999 42.999 0 0 0 563.77 61.256 Q 563.965 63.673 564.356 65.626 A 61.238 61.238 0 0 0 566.323 60.728 A 71.464 71.464 0 0 0 567.017 58.668 A 87.593 87.593 0 0 0 569.068 51.124 A 80.34 80.34 0 0 0 570.357 43.882 A 73.991 73.991 0 0 0 570.386 43.653 A 61.781 61.781 0 0 0 570.734 40.137 A 46.99 46.99 0 0 0 570.85 36.915 Z M 143.262 75.538 A 11.906 11.906 0 0 0 146.021 73.926 A 11.813 11.813 0 0 0 147.743 72.281 A 10.63 10.63 0 0 0 148.145 71.778 Q 149.024 70.606 149.512 69.312 A 7.349 7.349 0 0 0 150 66.7 A 4.683 4.683 0 0 0 149.929 65.853 Q 149.843 65.386 149.653 65.018 A 2.264 2.264 0 0 0 149.268 64.478 A 2.582 2.582 0 0 0 148.567 63.954 A 2.226 2.226 0 0 0 147.559 63.721 A 3.956 3.956 0 0 0 146.409 63.882 A 3.29 3.29 0 0 0 145.313 64.454 A 5.337 5.337 0 0 0 144.072 65.866 A 6.453 6.453 0 0 0 143.799 66.358 A 9.388 9.388 0 0 0 143.121 68.181 A 11.22 11.22 0 0 0 142.944 68.97 A 15.558 15.558 0 0 0 142.676 71.827 A 10.156 10.156 0 0 0 142.753 73.052 A 12.195 12.195 0 0 0 142.847 73.682 A 20.101 20.101 0 0 0 143.144 75.092 A 17.746 17.746 0 0 0 143.262 75.538 Z M 495.947 75.538 A 11.906 11.906 0 0 0 498.706 73.926 A 11.813 11.813 0 0 0 500.428 72.281 A 10.63 10.63 0 0 0 500.83 71.778 Q 501.709 70.606 502.197 69.312 A 7.349 7.349 0 0 0 502.686 66.7 A 4.683 4.683 0 0 0 502.614 65.853 Q 502.528 65.386 502.339 65.018 A 2.264 2.264 0 0 0 501.953 64.478 A 2.582 2.582 0 0 0 501.253 63.954 A 2.226 2.226 0 0 0 500.244 63.721 A 3.956 3.956 0 0 0 499.094 63.882 A 3.29 3.29 0 0 0 497.998 64.454 A 5.337 5.337 0 0 0 496.757 65.866 A 6.453 6.453 0 0 0 496.485 66.358 A 9.388 9.388 0 0 0 495.806 68.181 A 11.22 11.22 0 0 0 495.63 68.97 A 15.558 15.558 0 0 0 495.361 71.827 A 10.156 10.156 0 0 0 495.439 73.052 A 12.195 12.195 0 0 0 495.532 73.682 A 20.101 20.101 0 0 0 495.83 75.092 A 17.746 17.746 0 0 0 495.947 75.538 Z M 592.394 47.8 A 4.376 4.376 0 0 0 592.871 45.753 A 4.997 4.997 0 0 0 592.871 45.68 A 4.374 4.374 0 0 0 592.529 44.019 Q 592.188 43.214 591.577 42.603 Q 590.967 41.993 590.161 41.651 Q 589.356 41.309 588.428 41.309 A 4.997 4.997 0 0 0 588.356 41.31 A 4.374 4.374 0 0 0 586.694 41.651 Q 585.889 41.993 585.278 42.603 Q 584.668 43.214 584.326 44.019 Q 583.985 44.825 583.985 45.753 A 5.282 5.282 0 0 0 583.985 45.81 A 4.28 4.28 0 0 0 585.278 48.902 A 4.469 4.469 0 0 0 586.381 49.719 A 4.376 4.376 0 0 0 588.428 50.196 A 5.282 5.282 0 0 0 588.486 50.196 A 4.28 4.28 0 0 0 591.577 48.902 A 4.469 4.469 0 0 0 592.394 47.8 Z M 375.049 66.407 A 7.898 7.898 0 0 0 375.154 67.667 A 9.613 9.613 0 0 0 375.293 68.36 A 8.938 8.938 0 0 0 375.956 70.198 A 9.989 9.989 0 0 0 376.05 70.386 A 10.209 10.209 0 0 0 377.319 72.291 A 7.363 7.363 0 0 0 379.102 73.829 A 14.227 14.227 0 0 0 379.248 71.949 A 13.078 13.078 0 0 0 379.248 71.827 A 18.976 18.976 0 0 0 379.053 69.141 Q 378.858 67.774 378.491 66.627 Q 378.125 65.479 377.588 64.771 A 2.141 2.141 0 0 0 377.215 64.383 A 1.41 1.41 0 0 0 376.318 64.063 A 0.551 0.551 0 0 0 376.129 64.101 Q 375.956 64.165 375.735 64.336 A 3.536 3.536 0 0 0 375.537 64.503 A 1.075 1.075 0 0 0 375.285 64.866 Q 375.12 65.231 375.07 65.84 A 7.007 7.007 0 0 0 375.049 66.407 Z M 565.967 33.497 L 570.654 33.497 Q 570.417 31.504 569.973 30.342 A 6.173 6.173 0 0 0 569.946 30.274 Q 569.483 29.102 568.897 29.102 A 0.626 0.626 0 0 0 568.637 29.169 Q 568.282 29.333 567.762 29.903 A 8.741 8.741 0 0 0 567.627 30.054 A 4.604 4.604 0 0 0 567.16 30.712 Q 566.564 31.707 565.967 33.497 Z M 590.137 45.753 A 1.631 1.631 0 0 0 589.657 44.59 A 2.141 2.141 0 0 0 589.624 44.556 A 1.787 1.787 0 0 0 589.097 44.184 A 1.606 1.606 0 0 0 588.428 44.044 Q 587.744 44.044 587.256 44.556 A 1.68 1.68 0 0 0 586.768 45.753 A 1.596 1.596 0 0 0 587.241 46.909 A 1.96 1.96 0 0 0 587.256 46.924 Q 587.744 47.413 588.428 47.413 A 1.68 1.68 0 0 0 589.624 46.924 A 1.66 1.66 0 0 0 590.009 46.387 A 1.566 1.566 0 0 0 590.137 45.753 Z M 330.274 60.401 L 332.422 60.401 A 12.051 12.051 0 0 0 332.42 60.216 Q 332.416 59.919 332.398 59.498 A 11.98 11.98 0 0 0 332.3 58.399 A 7.282 7.282 0 0 0 332.228 57.965 Q 332.188 57.762 332.138 57.586 A 3.959 3.959 0 0 0 332.105 57.471 A 1.843 1.843 0 0 0 332.058 57.339 Q 331.955 57.081 331.836 57.081 Q 331.69 57.081 331.47 57.447 A 7.997 7.997 0 0 0 331.302 57.742 Q 331.203 57.923 331.1 58.131 A 14.62 14.62 0 0 0 331.006 58.326 A 9.355 9.355 0 0 0 330.667 59.136 A 10.627 10.627 0 0 0 330.567 59.424 A 21.591 21.591 0 0 0 330.475 59.705 Q 330.355 60.081 330.284 60.362 A 7.114 7.114 0 0 0 330.274 60.401 Z M 565.137 69.19 L 565.137 69.141 L 565.137 69.19 Z" vector-effect="non-scaling-stroke"/></g></svg>